<svg xmlns="http://www.w3.org/2000/svg" width="200" height="200" viewBox="0 0 200 200">
  <defs>
    <clipPath id="circle-clip-05">
      <circle cx="100" cy="100" r="95"/>
    </clipPath>
  </defs>
  <!-- Screen border -->
  <circle cx="100" cy="100" r="97" fill="none" stroke="#555" stroke-width="3"/>
  <circle cx="100" cy="100" r="95" fill="#000"/>
  <g clip-path="url(#circle-clip-05)">
    <!-- Title -->
    <text x="100" y="43" text-anchor="middle" fill="#999" font-family="monospace" font-size="13">Light (lux)</text>
    <!-- Current value -->
    <text x="100" y="63" text-anchor="middle" fill="#fff" font-family="monospace" font-size="17" font-weight="bold">847</text>
    <!-- Y-axis labels -->
    <text x="31" y="60" text-anchor="end" fill="#666" font-family="monospace" font-size="8">1k</text>
    <text x="31" y="101" text-anchor="end" fill="#666" font-family="monospace" font-size="8">500</text>
    <text x="31" y="141" text-anchor="end" fill="#666" font-family="monospace" font-size="8">0</text>
    <!-- Dashed grid line at midpoint -->
    <line x1="34" y1="100" x2="175" y2="100" stroke="#333" stroke-width="0.5" stroke-dasharray="5,5"/>
    <!-- Y axis -->
    <line x1="33" y1="59" x2="33" y2="141" stroke="#666" stroke-width="1"/>
    <!-- X axis -->
    <line x1="33" y1="141" x2="175" y2="141" stroke="#666" stroke-width="1"/>
    <!-- Data line -->
    <polyline fill="none" stroke="#bbb" stroke-width="2"
              points="33,112 40,110 48,107 56,109 63,104 71,98 78,95 86,97 93,94 101,91 108,93 116,90 124,92 131,89 139,91 146,90 154,93 161,91 169,88 177,72"/>
    <!-- Subtitle -->
    <text x="100" y="157" text-anchor="middle" fill="#666" font-family="monospace" font-size="10">APDS9960</text>
    <text x="100" y="174" text-anchor="middle" fill="#666" font-family="monospace" font-size="10">20s window</text>
  </g>
</svg>
