<svg xmlns="http://www.w3.org/2000/svg" width="200" height="200" viewBox="0 0 200 200">
  <defs>
    <clipPath id="circle-clip-07">
      <circle cx="100" cy="100" r="95"/>
    </clipPath>
  </defs>
  <!-- Screen border -->
  <circle cx="100" cy="100" r="97" fill="none" stroke="#555" stroke-width="3"/>
  <circle cx="100" cy="100" r="95" fill="#000"/>
  <g clip-path="url(#circle-clip-07)">
    <!-- Rose circles -->
    <circle cx="100" cy="100" r="81.2" fill="none" stroke="#666" stroke-width="1.5"/>
    <circle cx="100" cy="100" r="56.2" fill="none" stroke="#666" stroke-width="1.5"/>
    <!-- Cardinal tick marks (bright) -->
    <line x1="100" y1="28.1" x2="100" y2="18.8" stroke="#bbb" stroke-width="1.5"/>
    <line x1="171.9" y1="100" x2="181.2" y2="100" stroke="#bbb" stroke-width="1.5"/>
    <line x1="100" y1="171.9" x2="100" y2="181.2" stroke="#bbb" stroke-width="1.5"/>
    <line x1="28.1" y1="100" x2="18.8" y2="100" stroke="#bbb" stroke-width="1.5"/>
    <!-- Diagonal tick marks (dark) -->
    <line x1="150" y1="50" x2="156.2" y2="43.8" stroke="#666" stroke-width="1.5"/>
    <line x1="150" y1="150" x2="156.2" y2="156.2" stroke="#666" stroke-width="1.5"/>
    <line x1="50" y1="150" x2="43.8" y2="156.2" stroke="#666" stroke-width="1.5"/>
    <line x1="50" y1="50" x2="43.8" y2="43.8" stroke="#666" stroke-width="1.5"/>
    <!-- Cardinal labels -->
    <text x="100" y="15.5" text-anchor="middle" fill="#fff" font-family="monospace" font-size="13">N</text>
    <text x="189.1" y="104.5" text-anchor="middle" fill="#999" font-family="monospace" font-size="13">E</text>
    <text x="100" y="193.6" text-anchor="middle" fill="#999" font-family="monospace" font-size="13">S</text>
    <text x="10.9" y="104.5" text-anchor="middle" fill="#999" font-family="monospace" font-size="13">W</text>
    <!-- Needle — North half (bright) -->
    <polygon points="100,31.2 95.3,100 104.7,100" fill="#bbb"/>
    <!-- Needle — South half (dark) -->
    <polygon points="100,168.8 95.3,100 104.7,100" fill="#666"/>
    <!-- Center pivot -->
    <circle cx="100" cy="100" r="4.7" fill="#999"/>
  </g>
</svg>
